<svg aria-hidden="true" style="position: absolute; width: 0; height: 0; overflow: hidden;" version="1.1" xmlns="http://www.w3.org/2000/svg" xmlns:xlink="http://www.w3.org/1999/xlink">
    <defs>
        <symbol id="icon-logo" viewBox="0 0 14 14">
            <path d="M10.8,9.62L2.47,7h9.14H14c0-3.87-3.13-7-7-7C3.13,0,0,3.13,0,7c0,3.86,3.13,7,7,7
	c2.65,0,4.96-1.47,6.15-3.65L10.8,9.62C10.8,9.62,10.8,9.62,10.8,9.62z"></path>
        </symbol>
        <symbol id="icon-menu" viewBox="0 0 48 32">
            <path d="M0 5.334v-5.334h48v5.334h-48zM0 18.666h48v-5.332h-48v5.332zM0 32h48v-5.334h-48v5.334z"></path>
        </symbol>
        <symbol id="icon-close" viewBox="0 0 32 32">
            <path d="M32 3.223l-3.223-3.223-12.777 12.777-12.777-12.777-3.223 3.223 12.777 12.777-12.777 12.777 3.223 3.223 12.777-12.777 12.777 12.777 3.223-3.223-12.777-12.777 12.777-12.777z"></path>
        </symbol>
    </defs>
</svg>